<?xml version="1.0" encoding="UTF-8"?>
<svg xmlns="http://www.w3.org/2000/svg" xmlns:xlink="http://www.w3.org/1999/xlink" viewBox="0 0 50 50" width="50px" height="50px">
<g id="surface439864">
<path style=" stroke:none;fill-rule:nonzero;fill:rgb(0%,0%,0%);fill-opacity:1;" d="M 25 50 C 11.191406 50 0 38.808594 0 25 C 0 11.191406 11.191406 0 25 0 C 38.808594 0 50 11.191406 50 25 C 50 38.808594 38.808594 50 25 50 Z M 25 50 "/>
<path style=" stroke:none;fill-rule:nonzero;fill:rgb(100%,100%,100%);fill-opacity:1;" d="M 19.632812 37.710938 C 19.632812 38.394531 19.269531 38.800781 18.75 38.800781 C 18.566406 38.800781 18.363281 38.75 18.148438 38.640625 L 9.792969 34.410156 C 9.300781 34.160156 8.898438 33.503906 8.898438 32.949219 L 8.898438 12.207031 C 8.898438 11.660156 9.191406 11.335938 9.605469 11.335938 C 9.753906 11.335938 9.917969 11.375 10.089844 11.460938 L 10.382812 11.609375 L 10.386719 11.609375 L 19.59375 16.273438 C 19.609375 16.28125 19.621094 16.296875 19.632812 16.308594 Z M 29.28125 12.644531 L 29.84375 11.71875 C 30.046875 11.386719 30.414062 11.199219 30.789062 11.199219 C 30.875 11.199219 30.964844 11.210938 31.050781 11.234375 C 31.117188 11.25 31.1875 11.273438 31.257812 11.3125 L 40.972656 16.226562 C 40.972656 16.226562 40.972656 16.230469 40.972656 16.230469 L 40.984375 16.234375 C 40.988281 16.238281 40.988281 16.246094 40.996094 16.25 C 41.042969 16.289062 41.0625 16.355469 41.03125 16.40625 L 31.359375 32.328125 L 30.371094 33.953125 L 23.960938 21.398438 Z M 21.167969 29.296875 L 21.167969 19.296875 L 28.050781 32.785156 L 21.859375 29.652344 Z M 41.101562 37.710938 C 41.101562 38.351562 40.71875 38.714844 40.160156 38.714844 C 39.90625 38.714844 39.621094 38.644531 39.316406 38.492188 L 37.929688 37.789062 L 31.738281 34.652344 L 41.101562 19.246094 Z M 41.101562 37.710938 "/>
</g>
</svg>
