<svg width="83" height="57" viewBox="0 0 83 57" fill="none" xmlns="http://www.w3.org/2000/svg">
<path d="M45.9121 19.4403C45.0286 20.7328 44.067 21.9774 43.2742 23.3225C38.0658 32.162 32.869 41.0083 27.7269 49.8858C26.285 52.3761 25.3097 53.2709 23.8345 52.7387C21.7492 51.9843 22.0118 50.0992 22.0811 48.4705C22.3076 43.1497 22.6366 37.8347 22.9295 32.5187C22.9783 31.6415 23.0505 30.7682 23.1462 29.3997C22.3437 30.08 21.7863 30.4095 21.4241 30.8851C15.5088 38.6563 8.82322 45.8466 3.7534 54.2543C3.50249 54.6715 3.22816 55.2095 2.83082 55.3733C2.24602 55.614 1.41618 55.8206 0.925113 55.575C0.442831 55.3343 -0.0306615 54.4921 0.0015558 53.9434C0.0503698 53.1052 0.400838 52.2045 0.863595 51.4852C2.78589 48.4997 4.6506 45.4597 6.80818 42.6458C11.8526 36.0656 17.0367 29.5908 22.21 23.1091C23.1824 21.8897 24.265 20.4501 26.1317 21.0905C28.1604 21.7874 28.0667 23.6325 27.9378 25.3275C27.6469 29.1619 27.2778 32.9905 26.9576 36.823C26.8434 38.1904 26.7829 39.5618 27.1714 41.1857C27.6293 40.5346 28.1233 39.9059 28.5402 39.2285C32.8856 32.1708 37.1803 25.0828 41.5794 18.0582C42.7792 16.142 44.2554 14.3953 45.6485 12.6048C46.5067 11.5025 47.6587 10.9937 49.0518 11.403C50.5094 11.8299 51.0513 13.0395 51.0464 14.3758C51.0327 17.2327 50.9634 20.0973 50.7242 22.9414C50.1218 30.1151 49.3994 37.2791 48.758 44.4499C48.6643 45.5035 48.7443 46.5728 48.7443 47.603C48.9425 47.6586 49.0392 47.7112 49.1329 47.7054C49.2178 47.6995 49.335 47.6557 49.3769 47.5904C57.4937 34.9798 65.6057 22.3673 73.7068 9.74703C73.8445 9.5326 73.8425 9.22655 74.0036 8.55401C72.5978 9.16417 71.4614 9.65639 70.325 10.1476C69.5108 10.4985 68.721 10.9479 67.8726 11.175C66.7001 11.4878 65.6642 11.1633 65.2542 9.90104C64.8822 8.75967 65.5119 8.05595 66.4999 7.55008C70.6306 5.43793 74.7349 3.27607 78.8772 1.19023C80.8679 0.188249 82.4025 0.962154 82.797 3.15326C82.9707 4.1104 82.8839 5.11823 82.8975 6.10267C82.9395 9.35911 83.0127 12.6146 82.9981 15.871C82.9893 17.875 82.2766 18.8926 81.0084 18.9988C79.6231 19.1167 78.8186 18.0621 78.6615 15.8837C78.6117 15.1946 78.639 14.5016 78.597 13.8125C78.556 13.1312 78.4711 12.4528 78.3647 11.3338C77.7028 12.0454 77.2039 12.443 76.8797 12.9508C68.5345 26.0068 60.2088 39.0755 51.8743 52.1363C51.1313 53.3001 50.4938 54.5847 49.5302 55.5341C48.8419 56.2125 47.6821 56.7768 46.7468 56.7573C45.4669 56.7291 44.6654 55.6043 44.5717 54.3167C44.394 51.8663 44.1284 49.3896 44.3091 46.9529C44.9231 38.593 45.7188 30.2457 46.4286 21.8907C46.493 21.1314 46.4374 20.3604 46.4374 19.5953C46.2626 19.5427 46.0869 19.49 45.9112 19.4364L45.9121 19.4403Z" fill="black"/>
</svg>
