<?xml version="1.0" encoding="UTF-8"?>
<svg xmlns="http://www.w3.org/2000/svg" xmlns:xlink="http://www.w3.org/1999/xlink" viewBox="0 0 64 64" width="64px" height="64px">
<g id="surface3630931">
<path style=" stroke:none;fill-rule:nonzero;fill:rgb(100%,100%,100%);fill-opacity:1;" d="M 8.535156 8.535156 C 8.257812 8.535156 7.980469 8.5625 7.707031 8.617188 C 7.6875 8.621094 7.664062 8.628906 7.640625 8.632812 C 5.675781 9.054688 4.269531 10.789062 4.265625 12.800781 L 4.265625 38.398438 C 4.269531 38.675781 4.296875 38.953125 4.351562 39.226562 C 4.355469 39.246094 4.363281 39.269531 4.367188 39.292969 C 4.785156 41.257812 6.523438 42.664062 8.535156 42.667969 L 55.464844 42.667969 C 55.742188 42.664062 56.019531 42.636719 56.292969 42.582031 C 56.3125 42.578125 56.335938 42.570312 56.359375 42.566406 C 58.324219 42.144531 59.730469 40.410156 59.734375 38.398438 L 59.734375 12.800781 C 59.730469 12.523438 59.703125 12.246094 59.648438 11.976562 C 59.644531 11.953125 59.636719 11.929688 59.632812 11.910156 C 59.214844 9.941406 57.476562 8.535156 55.464844 8.535156 Z M 12.800781 12.800781 L 51.199219 12.800781 C 51.199219 15.15625 53.109375 17.066406 55.464844 17.066406 L 55.464844 34.132812 C 53.109375 34.132812 51.199219 36.042969 51.199219 38.398438 L 12.800781 38.398438 C 12.800781 36.042969 10.890625 34.132812 8.535156 34.132812 L 8.535156 17.066406 C 10.890625 17.066406 12.800781 15.15625 12.800781 12.800781 Z M 32 17.066406 C 27.289062 17.066406 23.464844 21.367188 23.464844 26.667969 C 23.464844 29.699219 24.742188 32.375 26.695312 34.132812 L 37.304688 34.132812 C 39.257812 32.375 40.535156 29.699219 40.535156 26.667969 C 40.535156 21.367188 36.710938 17.066406 32 17.066406 Z M 14.933594 23.464844 C 13.753906 23.464844 12.800781 24.421875 12.800781 25.601562 C 12.800781 26.777344 13.753906 27.734375 14.933594 27.734375 C 16.113281 27.734375 17.066406 26.777344 17.066406 25.601562 C 17.066406 24.421875 16.113281 23.464844 14.933594 23.464844 Z M 49.066406 23.464844 C 47.886719 23.464844 46.933594 24.421875 46.933594 25.601562 C 46.933594 26.777344 47.886719 27.734375 49.066406 27.734375 C 50.246094 27.734375 51.199219 26.777344 51.199219 25.601562 C 51.199219 24.421875 50.246094 23.464844 49.066406 23.464844 Z M 55.433594 46.902344 C 55.328125 46.90625 55.226562 46.917969 55.125 46.933594 L 53.332031 46.933594 L 53.332031 51.199219 C 51.542969 51.199219 50.015625 52.300781 49.382812 53.863281 C 47.34375 53.101562 44.792969 52.207031 41.492188 51.277344 C 33.742188 49.101562 22.617188 46.933594 8.535156 46.933594 C 7.765625 46.921875 7.046875 47.328125 6.660156 47.992188 C 6.273438 48.65625 6.273438 49.476562 6.660156 50.140625 C 7.046875 50.808594 7.765625 51.210938 8.535156 51.199219 C 22.179688 51.199219 32.898438 53.296875 40.335938 55.386719 C 44.054688 56.433594 46.949219 57.472656 48.996094 58.257812 C 50.019531 58.652344 50.828125 58.980469 51.449219 59.222656 C 51.761719 59.34375 52.015625 59.441406 52.265625 59.523438 C 52.484375 59.597656 52.636719 59.691406 53.160156 59.714844 C 53.21875 59.722656 53.273438 59.753906 53.332031 59.753906 C 55.628906 59.753906 57.464844 57.9375 57.578125 55.683594 C 57.59375 55.582031 57.601562 55.484375 57.601562 55.382812 L 57.601562 46.933594 L 55.796875 46.933594 C 55.675781 46.914062 55.554688 46.902344 55.433594 46.902344 Z M 55.433594 46.902344 "/>
</g>
</svg>
