<?xml version="1.0" encoding="UTF-8"?>
<svg xmlns="http://www.w3.org/2000/svg" xmlns:xlink="http://www.w3.org/1999/xlink" viewBox="0 0 64 64" width="64px" height="64px">
<g id="surface3756468">
<path style=" stroke:none;fill-rule:nonzero;fill:rgb(100%,100%,100%);fill-opacity:1;" d="M 32 2.125 C 15.527344 2.125 2.125 15.527344 2.125 32 C 2.113281 37.9375 3.878906 43.742188 7.203125 48.667969 C 8.449219 47.898438 9.882812 47.496094 11.34375 47.5 L 52.65625 47.5 C 54.117188 47.496094 55.550781 47.898438 56.796875 48.667969 C 60.121094 43.742188 61.886719 37.9375 61.875 32 C 61.875 15.527344 48.472656 2.125 32 2.125 Z M 46.957031 27.585938 L 43.199219 31.246094 C 42.402344 32.023438 42.039062 33.140625 42.226562 34.234375 L 43.113281 39.40625 C 43.585938 42.164062 40.691406 44.269531 38.214844 42.964844 L 33.570312 40.523438 C 32.585938 40.007812 31.414062 40.007812 30.429688 40.523438 L 25.785156 42.964844 C 23.308594 44.269531 20.414062 42.164062 20.886719 39.40625 L 21.773438 34.234375 C 21.960938 33.140625 21.597656 32.023438 20.800781 31.246094 L 17.042969 27.585938 C 15.039062 25.632812 16.144531 22.226562 18.914062 21.824219 L 24.109375 21.070312 C 25.207031 20.910156 26.160156 20.21875 26.648438 19.222656 L 28.972656 14.519531 C 30.210938 12.007812 33.789062 12.007812 35.027344 14.519531 L 37.351562 19.222656 C 37.839844 20.21875 38.792969 20.910156 39.890625 21.070312 L 45.085938 21.824219 C 47.855469 22.226562 48.960938 25.632812 46.957031 27.585938 Z M 52.65625 49 L 11.34375 49 C 7.789062 49 4.910156 51.882812 4.910156 55.4375 C 4.910156 58.992188 7.789062 61.871094 11.34375 61.871094 L 52.65625 61.871094 C 56.210938 61.871094 59.089844 58.992188 59.089844 55.4375 C 59.089844 51.882812 56.210938 49 52.65625 49 Z M 52.65625 49 "/>
</g>
</svg>
