<?xml version="1.0" encoding="UTF-8"?>
<svg xmlns="http://www.w3.org/2000/svg" xmlns:xlink="http://www.w3.org/1999/xlink" viewBox="0 0 50 50" width="50px" height="50px">
<g id="surface3745329">
<path style=" stroke:none;fill-rule:nonzero;fill:rgb(100%,100%,100%);fill-opacity:1;" d="M 9.3125 0 C 6.339844 0 4 2.339844 4 5.3125 L 4 42 L 35 42 L 35 5.3125 C 35 2.339844 32.660156 0 29.6875 0 Z M 10.90625 5 L 28.09375 5 C 29.09375 5 30 5.90625 30 6.90625 L 30 17.09375 C 30 18.09375 29.09375 19 28.09375 19 L 10.90625 19 C 9.90625 19 9 18.09375 9 17.09375 L 9 6.90625 C 9 5.90625 9.90625 5 10.90625 5 Z M 37.71875 5.28125 L 36.28125 6.71875 L 42 12.40625 L 42 20.59375 C 42 21.730469 42.472656 22.910156 43.28125 23.71875 L 48 28.40625 L 48 36 C 48 38.242188 46.242188 40 44 40 C 41.757812 40 40 38.242188 40 36 L 40 31 C 40 28.34375 38.351562 26.152344 36 25.34375 L 36 27.53125 C 37.199219 28.214844 38 29.492188 38 31 L 38 36 C 38 39.363281 40.636719 42 44 42 C 47.363281 42 50 39.363281 50 36 L 50 19.40625 C 50 18.269531 49.527344 17.089844 48.71875 16.28125 Z M 3 44 C 2.449219 44 2 44.445312 2 45 L 2 49 C 2 49.554688 2.449219 50 3 50 L 36 50 C 36.554688 50 37 49.554688 37 49 L 37 45 C 37 44.445312 36.554688 44 36 44 Z M 3 44 "/>
</g>
</svg>
