<?xml version="1.0" encoding="UTF-8"?>
<svg xmlns="http://www.w3.org/2000/svg" xmlns:xlink="http://www.w3.org/1999/xlink" viewBox="0 0 50 50" width="50px" height="50px">
<g id="surface3646325">
<path style=" stroke:none;fill-rule:nonzero;fill:rgb(100%,100%,100%);fill-opacity:1;" d="M 25 10 C 22.792969 10 21 8.207031 21 6 C 21 3.792969 22.792969 2 25 2 C 27.207031 2 29 3.792969 29 6 C 29 8.207031 27.207031 10 25 10 Z M 7 19 C 4.792969 19 3 17.207031 3 15 C 3 12.792969 4.792969 11 7 11 C 9.207031 11 11 12.792969 11 15 C 11 17.207031 9.207031 19 7 19 Z M 25 48 C 22.792969 48 21 46.207031 21 44 C 21 41.792969 22.792969 40 25 40 C 27.207031 40 29 41.792969 29 44 C 29 46.207031 27.207031 48 25 48 Z M 43 19 C 40.792969 19 39 17.207031 39 15 C 39 12.792969 40.792969 11 43 11 C 45.207031 11 47 12.792969 47 15 C 47 17.207031 45.207031 19 43 19 Z M 7 39 C 4.792969 39 3 37.207031 3 35 C 3 32.792969 4.792969 31 7 31 C 9.207031 31 11 32.792969 11 35 C 11 37.207031 9.207031 39 7 39 Z M 43 39 C 40.792969 39 39 37.207031 39 35 C 39 32.792969 40.792969 31 43 31 C 45.207031 31 47 32.792969 47 35 C 47 37.207031 45.207031 39 43 39 Z M 25 29 C 22.792969 29 21 27.207031 21 25 C 21 22.792969 22.792969 21 25 21 C 27.207031 21 29 22.792969 29 25 C 29 27.207031 27.207031 29 25 29 Z M 25 31 C 24.660156 31 24.324219 30.964844 24 30.910156 L 24 38.089844 C 24.324219 38.035156 24.660156 38 25 38 C 25.339844 38 25.675781 38.035156 26 38.089844 L 26 30.910156 C 25.675781 30.964844 25.339844 31 25 31 Z M 20.320312 21.257812 L 12.652344 16.996094 C 12.425781 17.636719 12.097656 18.226562 11.679688 18.746094 L 19.347656 23.003906 C 19.574219 22.363281 19.902344 21.773438 20.320312 21.257812 Z M 30.652344 23.003906 L 38.320312 18.742188 C 37.902344 18.226562 37.574219 17.632812 37.347656 16.996094 L 29.679688 21.253906 C 30.097656 21.773438 30.425781 22.363281 30.652344 23.003906 Z M 12.738281 13.25 L 20.164062 9.535156 C 19.769531 9 19.460938 8.402344 19.261719 7.75 L 11.835938 11.464844 C 12.230469 12 12.539062 12.597656 12.738281 13.25 Z M 20.164062 40.464844 L 12.738281 36.75 C 12.539062 37.402344 12.230469 38 11.835938 38.535156 L 19.261719 42.25 C 19.460938 41.597656 19.769531 41 20.164062 40.464844 Z M 37.261719 36.75 L 29.835938 40.464844 C 30.230469 41 30.539062 41.601562 30.738281 42.25 L 38.164062 38.535156 C 37.769531 38 37.460938 37.398438 37.261719 36.75 Z M 37.261719 36.75 "/>
</g>
</svg>
