<?xml version="1.0" encoding="UTF-8"?>
<svg xmlns="http://www.w3.org/2000/svg" xmlns:xlink="http://www.w3.org/1999/xlink" viewBox="0 0 48 48" width="48px" height="48px">
<g id="surface442855">
<path style=" stroke:none;fill-rule:nonzero;fill:rgb(44.705883%,53.725493%,85.490197%);fill-opacity:1;" d="M 24 48 C 10.746094 48 0 37.253906 0 24 C 0 10.746094 10.746094 0 24 0 C 37.253906 0 48 10.746094 48 24 C 48 37.253906 37.253906 48 24 48 Z M 24 48 "/>
<path style=" stroke:none;fill-rule:nonzero;fill:rgb(100%,100%,100%);fill-opacity:1;" d="M 35.601562 15.300781 C 35.601562 15.300781 32.277344 12.699219 28.351562 12.398438 L 27.996094 13.109375 C 31.546875 13.976562 33.175781 15.222656 34.875 16.75 C 31.941406 15.253906 29.046875 13.851562 24 13.851562 C 18.953125 13.851562 16.058594 15.253906 13.125 16.75 C 14.824219 15.222656 16.761719 13.839844 20.003906 13.109375 L 19.648438 12.398438 C 15.53125 12.789062 12.398438 15.300781 12.398438 15.300781 C 12.398438 15.300781 8.6875 20.683594 8.050781 31.25 C 11.792969 35.566406 17.476562 35.601562 17.476562 35.601562 L 18.664062 34.015625 C 16.644531 33.316406 14.367188 32.0625 12.398438 29.800781 C 14.746094 31.578125 18.289062 33.425781 24 33.425781 C 29.710938 33.425781 33.253906 31.578125 35.601562 29.800781 C 33.632812 32.0625 31.355469 33.316406 29.335938 34.015625 L 30.523438 35.601562 C 30.523438 35.601562 36.207031 35.566406 39.949219 31.25 C 39.3125 20.683594 35.601562 15.300781 35.601562 15.300781 Z M 19.289062 28.351562 C 17.886719 28.351562 16.75 27.050781 16.75 25.449219 C 16.75 23.847656 17.886719 22.550781 19.289062 22.550781 C 20.6875 22.550781 21.824219 23.847656 21.824219 25.449219 C 21.824219 27.050781 20.6875 28.351562 19.289062 28.351562 Z M 28.710938 28.351562 C 27.3125 28.351562 26.175781 27.050781 26.175781 25.449219 C 26.175781 23.847656 27.3125 22.550781 28.710938 22.550781 C 30.113281 22.550781 31.25 23.847656 31.25 25.449219 C 31.25 27.050781 30.113281 28.351562 28.710938 28.351562 Z M 28.710938 28.351562 "/>
</g>
</svg>
