<?xml version="1.0" encoding="UTF-8"?>
<svg xmlns="http://www.w3.org/2000/svg" xmlns:xlink="http://www.w3.org/1999/xlink" viewBox="0 0 48 48" width="48px" height="48px">
<g id="surface3743964">
<path style=" stroke:none;fill-rule:nonzero;fill:rgb(100%,100%,100%);fill-opacity:1;" d="M 23.976562 2.976562 C 23.148438 2.992188 22.488281 3.671875 22.5 4.5 L 22.5 6 L 4.5 6 C 3.960938 5.992188 3.457031 6.277344 3.183594 6.742188 C 2.910156 7.210938 2.910156 7.789062 3.183594 8.257812 C 3.457031 8.722656 3.960938 9.007812 4.5 9 L 5 9 L 5 30.5 C 5 33.53125 7.46875 36 10.5 36 L 16.574219 36 L 13.160156 42.832031 C 12.902344 43.3125 12.929688 43.890625 13.226562 44.347656 C 13.523438 44.804688 14.042969 45.066406 14.585938 45.027344 C 15.128906 44.992188 15.609375 44.664062 15.84375 44.171875 L 19.925781 36 L 28.074219 36 L 32.160156 44.171875 C 32.390625 44.664062 32.871094 44.992188 33.414062 45.027344 C 33.957031 45.066406 34.476562 44.804688 34.773438 44.347656 C 35.070312 43.890625 35.097656 43.3125 34.84375 42.832031 L 31.425781 36 L 37.5 36 C 40.53125 36 43 33.53125 43 30.5 L 43 9 L 43.5 9 C 44.039062 9.007812 44.542969 8.722656 44.816406 8.257812 C 45.089844 7.789062 45.089844 7.210938 44.816406 6.742188 C 44.542969 6.277344 44.039062 5.992188 43.5 6 L 25.5 6 L 25.5 4.5 C 25.503906 4.09375 25.347656 3.703125 25.058594 3.417969 C 24.773438 3.128906 24.382812 2.972656 23.976562 2.980469 Z M 27.5 14 C 28.328125 14 29 14.671875 29 15.5 L 29 26.5 C 29 27.328125 28.328125 28 27.5 28 C 26.671875 28 26 27.328125 26 26.5 L 26 15.5 C 26 14.671875 26.671875 14 27.5 14 Z M 34.5 17 C 35.328125 17 36 17.671875 36 18.5 L 36 26.5 C 36 27.328125 35.328125 28 34.5 28 C 33.671875 28 33 27.328125 33 26.5 L 33 18.5 C 33 17.671875 33.671875 17 34.5 17 Z M 20.5 20 C 21.328125 20 22 20.671875 22 21.5 L 22 26.5 C 22 27.328125 21.328125 28 20.5 28 C 19.671875 28 19 27.328125 19 26.5 L 19 21.5 C 19 20.671875 19.671875 20 20.5 20 Z M 13.5 23 C 14.328125 23 15 23.671875 15 24.5 L 15 26.5 C 15 27.328125 14.328125 28 13.5 28 C 12.671875 28 12 27.328125 12 26.5 L 12 24.5 C 12 23.671875 12.671875 23 13.5 23 Z M 13.5 23 "/>
</g>
</svg>
