<?xml version="1.0" encoding="UTF-8"?>
<svg xmlns="http://www.w3.org/2000/svg" xmlns:xlink="http://www.w3.org/1999/xlink" viewBox="0 0 50 50" width="50px" height="50px">
<g id="surface3749590">
<path style=" stroke:none;fill-rule:nonzero;fill:rgb(100%,100%,100%);fill-opacity:1;" d="M 50 27.242188 C 50 29.0625 44.664062 31.605469 35.976562 31.605469 C 33.855469 31.605469 31.828125 31.445312 29.9375 31.136719 C 29.96875 30.964844 30.003906 30.796875 30.003906 30.621094 L 30.003906 25.652344 C 31.894531 25.941406 33.894531 26.09375 35.976562 26.09375 C 41.414062 26.09375 47.085938 24.996094 50 22.921875 Z M 28.003906 30.621094 C 28.003906 32.433594 22.6875 34.96875 14.03125 34.96875 C 5.375 34.96875 0.0625 32.4375 0.0625 30.621094 L 0.0625 26.324219 C 2.96875 28.390625 8.613281 29.480469 14.03125 29.480469 C 19.449219 29.480469 25.09375 28.390625 28.003906 26.324219 Z M 0.0625 33.808594 C 2.972656 35.875 8.617188 36.96875 14.03125 36.96875 C 19.449219 36.96875 25.09375 35.875 28.003906 33.808594 L 28.003906 38.105469 C 28.003906 39.921875 22.6875 42.453125 14.03125 42.453125 C 5.378906 42.453125 0.0625 39.921875 0.0625 38.105469 Z M 50 12.21875 C 50 14.039062 44.664062 16.582031 35.976562 16.582031 C 27.289062 16.582031 21.953125 14.039062 21.953125 12.21875 L 21.953125 7.898438 C 24.867188 9.972656 30.535156 11.070312 35.976562 11.070312 C 41.414062 11.070312 47.085938 9.972656 50 7.898438 Z M 35.976562 0.339844 C 44.664062 0.339844 50 2.882812 50 4.703125 C 50 6.527344 44.664062 9.070312 35.976562 9.070312 C 27.289062 9.070312 21.953125 6.527344 21.953125 4.703125 C 21.953125 2.882812 27.285156 0.339844 35.976562 0.339844 Z M 21.953125 15.40625 C 24.867188 17.484375 30.535156 18.582031 35.976562 18.582031 C 41.414062 18.582031 47.085938 17.484375 50 15.40625 L 50 19.730469 C 50 21.550781 44.664062 24.09375 35.976562 24.09375 C 33.894531 24.09375 31.828125 23.925781 29.941406 23.621094 C 29.96875 23.460938 30.003906 23.304688 30.003906 23.136719 C 30.003906 20.457031 26.515625 18.585938 21.953125 17.597656 Z M 14.03125 18.789062 C 22.6875 18.789062 28.003906 21.320312 28.003906 23.136719 C 28.003906 24.949219 22.6875 27.480469 14.03125 27.480469 C 5.375 27.480469 0.0625 24.949219 0.0625 23.136719 C 0.0625 21.320312 5.378906 18.789062 14.03125 18.789062 Z M 14.03125 49.9375 C 5.378906 49.9375 0.0625 47.40625 0.0625 45.589844 L 0.0625 41.292969 C 2.96875 43.359375 8.613281 44.453125 14.03125 44.453125 C 19.449219 44.453125 25.09375 43.359375 28.003906 41.292969 L 28.003906 45.589844 C 28.003906 47.40625 22.6875 49.9375 14.03125 49.9375 Z M 35.976562 39.117188 C 33.867188 39.117188 31.839844 38.957031 29.933594 38.648438 C 29.96875 38.46875 30.003906 38.292969 30.003906 38.105469 L 30.003906 33.167969 C 31.886719 33.453125 33.890625 33.605469 35.976562 33.605469 C 41.414062 33.605469 47.085938 32.507812 50 30.433594 L 50 34.753906 C 50 36.574219 44.664062 39.117188 35.976562 39.117188 Z M 35.976562 39.117188 "/>
</g>
</svg>
