<svg xmlns="http://www.w3.org/2000/svg" xmlns:xlink="http://www.w3.org/1999/xlink" viewBox="0 0 473.1 473.1"><defs><style>.cls-1{fill:url(#New_Gradient_Swatch_1);}.cls-2{fill:url(#New_Gradient_Swatch_1-2);}.cls-3{fill:url(#New_Gradient_Swatch_1-3);}</style><radialGradient id="New_Gradient_Swatch_1" cx="321.11" cy="152" fx="462.4593665312947" fy="-215.1425555588615" r="393.41" gradientUnits="userSpaceOnUse"><stop offset="0.07" stop-color="#f26767"/><stop offset="0.23" stop-color="#ed202b"/><stop offset="0.27" stop-color="#d62d53"/><stop offset="0.32" stop-color="#c03a79"/><stop offset="0.36" stop-color="#b24190"/><stop offset="0.38" stop-color="#ad4499"/><stop offset="0.51" stop-color="#7b489d"/><stop offset="0.57" stop-color="#674a9e"/><stop offset="0.64" stop-color="#4c418e"/><stop offset="0.71" stop-color="#32387e"/><stop offset="0.76" stop-color="#283578"/><stop offset="0.8" stop-color="#253170"/><stop offset="0.87" stop-color="#1d2659"/><stop offset="0.89" stop-color="#1b2353"/></radialGradient><radialGradient id="New_Gradient_Swatch_1-2" cx="878.81" cy="921.74" fx="1256.0193596266913" fy="1083.6030246838604" r="410.47" xlink:href="#New_Gradient_Swatch_1"/><radialGradient id="New_Gradient_Swatch_1-3" cx="263.49" cy="216.4" fx="774.7912984855764" fy="130.86464350404725" r="601.47" xlink:href="#New_Gradient_Swatch_1"/></defs><g id="Layer_1" data-name="Layer 1"><circle class="cls-1" cx="321.11" cy="152" r="12.74"/><path class="cls-2" d="M272.48,294.67l-1.7,3.9,1.1-.49C272.1,296.94,272.3,295.81,272.48,294.67Zm-74.36-68.76,3.92-1.7c-1.15.18-2.28.38-3.42.59C198.46,225.17,198.29,225.54,198.12,225.91Z" transform="translate(-9.24 -14.34)"/><path class="cls-3" d="M255.36,404.13a233,233,0,0,0,30-50.57,232.78,232.78,0,0,0,10.11-28.22c.68-2.37,1.32-4.75,1.92-7.12Q300,308,301.6,297.56c.12-.65.23-1.31.32-2,.63-4.3,1.17-8.61,1.56-12.93C377.78,243.6,419.19,199.87,441.81,160l40.53-20.65v-125h-125L336.68,54.9c-39.86,22.61-83.58,64-122.65,138.29q-6.48.62-12.93,1.57l-1.93.3q-10.41,1.65-20.66,4.23c-2.4.61-4.78,1.25-7.16,1.93a231.49,231.49,0,0,0-28.21,10.12,225.15,225.15,0,0,0-26.34,13.44,230.72,230.72,0,0,0-24.25,16.54,235,235,0,0,0-21.79,19.23l0,.22L65,266.46q-7.29,7.82-13.74,16.11a232.85,232.85,0,0,0-16.55,24.25A227,227,0,0,0,21.3,333.17a233.53,233.53,0,0,0-10.1,28.2c-.69,2.43-1.34,4.85-2,7.29a122,122,0,0,0,27.07,12.47c.6-2.7,1.26-5.38,2-8.06a203.46,203.46,0,0,1,9.57-27.67c1.77-4.16,3.71-8.28,5.78-12.34,2.51-4.92,5.26-9.79,8.2-14.54a201.35,201.35,0,0,1,22.89-30.28,56.18,56.18,0,0,1,4.72-5v0c.6-.62,1.22-1.24,1.85-1.86s1.24-1.25,1.86-1.85h0a205.86,205.86,0,0,1,35.32-27.62l0-.22.53-.09a199.26,199.26,0,0,1,26.38-13.66A203.9,203.9,0,0,1,183,228.3q4-1.05,8-1.92c2.53-.58,5.08-1.1,7.63-1.58,1.14-.21,2.27-.41,3.42-.59,2.92-.5,5.86-.93,8.8-1.29l1-.12a147.15,147.15,0,0,1,3.19,15.12,135.13,135.13,0,0,1,1.52,13.77l-.27,0a172.17,172.17,0,0,0-19.77,3.36c-3,.69-6,1.45-8.94,2.31A172,172,0,0,0,158,268.83a174.55,174.55,0,0,0-43.71,30.87h0c-.71.81-1.46,1.59-2.25,2.38s-1.57,1.53-2.39,2.25h0c-3.73,3.87-7.28,7.89-10.58,12a172,172,0,0,0-19.38,30c-.32.57-.61,1.12-.9,1.71a172.91,172.91,0,0,0-11.43,29.56c-.85,3-1.63,6-2.33,9a123.64,123.64,0,0,0,29.88-1.5A143.15,143.15,0,0,1,195,285,140.61,140.61,0,0,1,215.82,281a143.93,143.93,0,0,1-4.06,20.78A143.15,143.15,0,0,1,111.64,401.89a123.53,123.53,0,0,0-1.5,29.74c3-.68,6-1.45,8.94-2.3a172.25,172.25,0,0,0,29.54-11.44c.59-.28,1.16-.57,1.72-.88a173.52,173.52,0,0,0,30-19.39c4.14-3.3,8.17-6.84,12-10.6l0,0c.71-.8,1.46-1.6,2.23-2.37s1.56-1.51,2.37-2.24h0a174,174,0,0,0,30.87-43.73A172.3,172.3,0,0,0,239.3,309.1c.84-2.93,1.6-5.88,2.29-8.83A168.64,168.64,0,0,0,245,280.48a2,2,0,0,0,0-.36,134.62,134.62,0,0,1,13.76,1.52,145.13,145.13,0,0,1,15.12,3.2c-.05.37-.09.71-.13,1.09q-.54,4.38-1.27,8.74c-.18,1.14-.38,2.27-.6,3.41-.47,2.57-1,5.14-1.56,7.69s-1.25,5.26-1.94,7.87a205.23,205.23,0,0,1-9.58,27.66,198.76,198.76,0,0,1-13.66,26.39l-.09.54-.23,0a204.12,204.12,0,0,1-27.62,35.32h0c-.59.63-1.21,1.25-1.83,1.87s-1.25,1.25-1.88,1.84v0q-2.47,2.42-5,4.72a202.54,202.54,0,0,1-30.29,22.88c-4.75,2.95-9.61,5.69-14.52,8.21-4.07,2.06-8.2,4-12.36,5.77a204.88,204.88,0,0,1-27.67,9.58c-2.65.71-5.3,1.36-8,2a122.29,122.29,0,0,0,12.43,27.08q3.65-.92,7.26-2a233.47,233.47,0,0,0,28.2-10.09,226.09,226.09,0,0,0,26.34-13.46,223.82,223.82,0,0,0,24.25-16.55q8.29-6.44,16.12-13.74l5.68-5.69.22,0A235,235,0,0,0,255.36,404.13ZM355.77,191.76a36,36,0,1,1,10.33-21.71A35.94,35.94,0,0,1,355.77,191.76Z" transform="translate(-9.24 -14.34)"/></g></svg>